<?xml version="1.0" standalone="no"?>
<!DOCTYPE svg PUBLIC "-//W3C//DTD SVG 20010904//EN"
 "http://www.w3.org/TR/2001/REC-SVG-20010904/DTD/svg10.dtd">
<svg version="1.0" xmlns="http://www.w3.org/2000/svg"
 width="207.000000pt" height="207.000000pt" viewBox="0 0 207.000000 207.000000"
 preserveAspectRatio="xMidYMid meet">
<metadata>
Created by potrace 1.14, written by Peter Selinger 2001-2017
</metadata>
<g transform="translate(0.000000,207.000000) scale(0.100000,-0.100000)"
fill="#000000" stroke="none">
<path d="M1003 2046 c-34 -11 -64 -24 -67 -27 -6 -6 32 -128 43 -142 7 -7 128
29 143 42 9 8 -35 144 -48 147 -5 1 -37 -8 -71 -20z"/>
<path d="M197 1973 l-58 -57 53 -53 c29 -29 57 -53 61 -53 9 0 107 100 107
109 0 4 -24 30 -53 59 l-52 52 -58 -57z"/>
<path d="M1747 1954 c-10 -34 -20 -69 -23 -78 -4 -11 11 -20 64 -35 38 -12 73
-21 78 -21 5 0 18 30 28 68 11 37 21 72 23 78 4 10 -25 20 -123 44 -31 7 -31
7 -47 -56z"/>
<path d="M1345 1643 c-38 -20 -71 -37 -73 -38 -2 -1 13 -34 34 -73 l36 -71 72
36 c39 19 72 36 73 37 2 2 -63 136 -69 141 -1 2 -34 -13 -73 -32z"/>
<path d="M613 1656 c-4 -6 -8 -15 -10 -21 -1 -5 -9 -35 -17 -65 -8 -30 -14
-55 -13 -56 1 -1 35 -11 75 -22 56 -16 74 -18 78 -8 22 57 41 137 33 142 -5 3
-39 13 -74 23 -47 13 -67 15 -72 7z"/>
<path d="M1856 1266 l-56 -56 55 -56 c49 -51 57 -55 72 -43 19 15 103 103 100
104 -1 0 -28 24 -58 53 l-56 54 -57 -56z"/>
<path d="M104 1283 l-72 -26 26 -74 c29 -84 22 -81 126 -43 l53 20 -26 75
c-14 41 -28 75 -31 74 -3 0 -37 -12 -76 -26z"/>
<path d="M898 1164 c-280 -41 -533 -206 -716 -467 -24 -34 -57 -87 -72 -118
-38 -74 -46 -64 135 -164 22 -12 58 -32 80 -45 22 -12 105 -59 185 -103 79
-45 156 -82 170 -83 23 -2 54 -18 205 -106 28 -16 73 -41 102 -55 49 -25 53
-26 71 -10 10 9 22 17 26 17 4 0 66 34 139 76 73 42 143 76 157 76 14 0 30 4
36 9 7 6 18 2 29 -11 11 -12 22 -17 29 -11 10 8 46 28 187 105 283 156 359
201 359 211 0 19 -110 188 -160 247 -288 339 -609 483 -962 432z m246 -53 c3
-3 -23 -6 -57 -6 -326 4 -661 -204 -862 -535 -32 -52 -39 -59 -56 -50 -10 6
-19 14 -19 19 0 4 27 49 61 100 57 86 201 245 259 284 143 97 218 134 335 165
44 11 91 23 105 25 44 7 230 6 234 -2z m16 -214 c17 -17 37 -42 45 -57 66
-128 -38 -283 -185 -276 -89 4 -131 46 -135 134 -5 111 67 208 171 230 51 11
66 6 104 -31z m151 -127 c6 -56 4 -99 -4 -128 -14 -44 -68 -106 -112 -126 -43
-21 -112 -29 -134 -16 -13 8 -11 9 9 10 73 1 177 92 200 174 11 42 9 119 -5
161 -4 11 5 2 19 -20 14 -22 27 -47 27 -55z m-81 -472 c30 -15 66 -35 79 -46
l24 -19 -62 -37 c-34 -20 -64 -36 -67 -36 -2 0 -21 -11 -42 -23 -20 -13 -58
-36 -84 -50 l-47 -26 -126 71 c-143 80 -142 79 -42 134 122 66 269 79 367 32z"/>
</g>
</svg>
